<mxfile host="app.diagrams.net" modified="2024-05-13T04:01:30.938Z" agent="Mozilla/5.0 (Windows NT 10.0; Win64; x64) AppleWebKit/537.36 (KHTML, like Gecko) Chrome/124.0.0.0 Safari/537.36" etag="v0YWcFobFA-TZNjsAuxZ" version="24.4.0" type="google">
  <diagram name="Page-1" id="eArXCFKfzv3NNGst2qX5">
    <mxGraphModel grid="1" page="1" gridSize="10" guides="1" tooltips="1" connect="1" arrows="1" fold="1" pageScale="1" pageWidth="850" pageHeight="1100" math="0" shadow="0">
      <root>
        <mxCell id="0" />
        <mxCell id="1" parent="0" />
        <mxCell id="ZMoEwl9ZKF62md0-fzZt-2" value="ExcursionÂ &#xa;" style="swimlane;fontStyle=0;align=center;verticalAlign=top;childLayout=stackLayout;horizontal=1;startSize=30;horizontalStack=0;resizeParent=1;resizeLast=0;collapsible=1;marginBottom=0;rounded=0;shadow=0;strokeWidth=1;fillColor=#fff2cc;strokeColor=#d6b656;" vertex="1" parent="1">
          <mxGeometry x="320" y="-1840" width="360" height="360" as="geometry">
            <mxRectangle x="110" y="-20" width="160" height="26" as="alternateBounds" />
          </mxGeometry>
        </mxCell>
        <mxCell id="ZMoEwl9ZKF62md0-fzZt-3" value="- nombre: String" style="text;align=left;verticalAlign=top;spacingLeft=4;spacingRight=4;overflow=hidden;rotatable=0;points=[[0,0.5],[1,0.5]];portConstraint=eastwest;rounded=0;shadow=0;html=0;" vertex="1" parent="ZMoEwl9ZKF62md0-fzZt-2">
          <mxGeometry y="30" width="360" height="22" as="geometry" />
        </mxCell>
        <mxCell id="ZMoEwl9ZKF62md0-fzZt-4" value="- fechaInicio: LocalDate" style="text;align=left;verticalAlign=top;spacingLeft=4;spacingRight=4;overflow=hidden;rotatable=0;points=[[0,0.5],[1,0.5]];portConstraint=eastwest;rounded=0;shadow=0;html=0;" vertex="1" parent="ZMoEwl9ZKF62md0-fzZt-2">
          <mxGeometry y="52" width="360" height="22" as="geometry" />
        </mxCell>
        <mxCell id="ZMoEwl9ZKF62md0-fzZt-5" value="- fechaFin: LocalDate" style="text;align=left;verticalAlign=top;spacingLeft=4;spacingRight=4;overflow=hidden;rotatable=0;points=[[0,0.5],[1,0.5]];portConstraint=eastwest;rounded=0;shadow=0;html=0;" vertex="1" parent="ZMoEwl9ZKF62md0-fzZt-2">
          <mxGeometry y="74" width="360" height="22" as="geometry" />
        </mxCell>
        <mxCell id="ZMoEwl9ZKF62md0-fzZt-6" value="- puntoEncuentro: String" style="text;align=left;verticalAlign=top;spacingLeft=4;spacingRight=4;overflow=hidden;rotatable=0;points=[[0,0.5],[1,0.5]];portConstraint=eastwest;rounded=0;shadow=0;html=0;" vertex="1" parent="ZMoEwl9ZKF62md0-fzZt-2">
          <mxGeometry y="96" width="360" height="22" as="geometry" />
        </mxCell>
        <mxCell id="ZMoEwl9ZKF62md0-fzZt-7" value="- costo: double" style="text;align=left;verticalAlign=top;spacingLeft=4;spacingRight=4;overflow=hidden;rotatable=0;points=[[0,0.5],[1,0.5]];portConstraint=eastwest;rounded=0;shadow=0;html=0;" vertex="1" parent="ZMoEwl9ZKF62md0-fzZt-2">
          <mxGeometry y="118" width="360" height="22" as="geometry" />
        </mxCell>
        <mxCell id="4KrZlMonaQdLq2CWz8eh-1" value="- cupoMinimo: int" style="text;align=left;verticalAlign=top;spacingLeft=4;spacingRight=4;overflow=hidden;rotatable=0;points=[[0,0.5],[1,0.5]];portConstraint=eastwest;rounded=0;shadow=0;html=0;" vertex="1" parent="ZMoEwl9ZKF62md0-fzZt-2">
          <mxGeometry y="140" width="360" height="22" as="geometry" />
        </mxCell>
        <mxCell id="4KrZlMonaQdLq2CWz8eh-2" value="- cupoMaximo: int" style="text;align=left;verticalAlign=top;spacingLeft=4;spacingRight=4;overflow=hidden;rotatable=0;points=[[0,0.5],[1,0.5]];portConstraint=eastwest;rounded=0;shadow=0;html=0;" vertex="1" parent="ZMoEwl9ZKF62md0-fzZt-2">
          <mxGeometry y="162" width="360" height="22" as="geometry" />
        </mxCell>
        <mxCell id="ZMoEwl9ZKF62md0-fzZt-8" value="" style="line;html=1;strokeWidth=1;align=left;verticalAlign=middle;spacingTop=-1;spacingLeft=3;spacingRight=3;rotatable=0;labelPosition=right;points=[];portConstraint=eastwest;" vertex="1" parent="ZMoEwl9ZKF62md0-fzZt-2">
          <mxGeometry y="184" width="360" height="8" as="geometry" />
        </mxCell>
        <mxCell id="ZMoEwl9ZKF62md0-fzZt-9" value="+ inscribirUsuario(usuario: Usuario)" style="text;align=left;verticalAlign=top;spacingLeft=4;spacingRight=4;overflow=hidden;rotatable=0;points=[[0,0.5],[1,0.5]];portConstraint=eastwest;rounded=0;shadow=0;html=0;" vertex="1" parent="ZMoEwl9ZKF62md0-fzZt-2">
          <mxGeometry y="192" width="360" height="22" as="geometry" />
        </mxCell>
        <mxCell id="4KrZlMonaQdLq2CWz8eh-5" value="+ alcanzoCupoMinimo(): boolean" style="text;align=left;verticalAlign=top;spacingLeft=4;spacingRight=4;overflow=hidden;rotatable=0;points=[[0,0.5],[1,0.5]];portConstraint=eastwest;rounded=0;shadow=0;html=0;" vertex="1" parent="ZMoEwl9ZKF62md0-fzZt-2">
          <mxGeometry y="214" width="360" height="22" as="geometry" />
        </mxCell>
        <mxCell id="4KrZlMonaQdLq2CWz8eh-6" value="+ alcanzoCupoMaximo(): boolean" style="text;align=left;verticalAlign=top;spacingLeft=4;spacingRight=4;overflow=hidden;rotatable=0;points=[[0,0.5],[1,0.5]];portConstraint=eastwest;rounded=0;shadow=0;html=0;" vertex="1" parent="ZMoEwl9ZKF62md0-fzZt-2">
          <mxGeometry y="236" width="360" height="22" as="geometry" />
        </mxCell>
        <mxCell id="ZMoEwl9ZKF62md0-fzZt-10" value="+ faltantesParaCupoMinimo(): int" style="text;align=left;verticalAlign=top;spacingLeft=4;spacingRight=4;overflow=hidden;rotatable=0;points=[[0,0.5],[1,0.5]];portConstraint=eastwest;rounded=0;shadow=0;html=0;" vertex="1" parent="ZMoEwl9ZKF62md0-fzZt-2">
          <mxGeometry y="258" width="360" height="22" as="geometry" />
        </mxCell>
        <mxCell id="ZMoEwl9ZKF62md0-fzZt-11" value="+ faltantesParaCupoMaximo(): int" style="text;align=left;verticalAlign=top;spacingLeft=4;spacingRight=4;overflow=hidden;rotatable=0;points=[[0,0.5],[1,0.5]];portConstraint=eastwest;rounded=0;shadow=0;html=0;" vertex="1" parent="ZMoEwl9ZKF62md0-fzZt-2">
          <mxGeometry y="280" width="360" height="22" as="geometry" />
        </mxCell>
        <mxCell id="ZMoEwl9ZKF62md0-fzZt-12" value="+ mailsDeInscriptos(): String" style="text;align=left;verticalAlign=top;spacingLeft=4;spacingRight=4;overflow=hidden;rotatable=0;points=[[0,0.5],[1,0.5]];portConstraint=eastwest;rounded=0;shadow=0;html=0;" vertex="1" parent="ZMoEwl9ZKF62md0-fzZt-2">
          <mxGeometry y="302" width="360" height="22" as="geometry" />
        </mxCell>
        <mxCell id="ZMoEwl9ZKF62md0-fzZt-13" value="+ obtenerInformacion(): String" style="text;align=left;verticalAlign=top;spacingLeft=4;spacingRight=4;overflow=hidden;rotatable=0;points=[[0,0.5],[1,0.5]];portConstraint=eastwest;rounded=0;shadow=0;html=0;" vertex="1" parent="ZMoEwl9ZKF62md0-fzZt-2">
          <mxGeometry y="324" width="360" height="22" as="geometry" />
        </mxCell>
        <mxCell id="ZMoEwl9ZKF62md0-fzZt-16" value="&lt;span style=&quot;font-size: 20px;&quot;&gt;&lt;b&gt;&lt;i&gt;ejercicio_09_Excursiones&lt;/i&gt;&lt;/b&gt;&lt;/span&gt;" style="text;html=1;align=center;verticalAlign=middle;resizable=0;points=[];autosize=1;strokeColor=none;fillColor=none;" vertex="1" parent="1">
          <mxGeometry x="1125" y="-1280" width="270" height="40" as="geometry" />
        </mxCell>
        <mxCell id="ZMoEwl9ZKF62md0-fzZt-17" value="&lt;b style=&quot;&quot;&gt;&lt;i&gt;&lt;font style=&quot;font-size: 20px;&quot;&gt;Patron State&lt;/font&gt;&lt;/i&gt;&lt;/b&gt;" style="text;html=1;align=center;verticalAlign=middle;resizable=0;points=[];autosize=1;strokeColor=none;fillColor=none;" vertex="1" parent="1">
          <mxGeometry x="240" y="-1930" width="140" height="40" as="geometry" />
        </mxCell>
        <mxCell id="4KrZlMonaQdLq2CWz8eh-8" value="Usuario" style="swimlane;fontStyle=0;align=center;verticalAlign=top;childLayout=stackLayout;horizontal=1;startSize=30;horizontalStack=0;resizeParent=1;resizeLast=0;collapsible=1;marginBottom=0;rounded=0;shadow=0;strokeWidth=1;fillColor=#fff2cc;strokeColor=#d6b656;" vertex="1" parent="1">
          <mxGeometry x="400" y="-1400" width="200" height="120" as="geometry">
            <mxRectangle x="110" y="-20" width="160" height="26" as="alternateBounds" />
          </mxGeometry>
        </mxCell>
        <mxCell id="4KrZlMonaQdLq2CWz8eh-10" value="- nombre: String" style="text;align=left;verticalAlign=top;spacingLeft=4;spacingRight=4;overflow=hidden;rotatable=0;points=[[0,0.5],[1,0.5]];portConstraint=eastwest;rounded=0;shadow=0;html=0;" vertex="1" parent="4KrZlMonaQdLq2CWz8eh-8">
          <mxGeometry y="30" width="200" height="22" as="geometry" />
        </mxCell>
        <mxCell id="4KrZlMonaQdLq2CWz8eh-11" value="- apellido: String" style="text;align=left;verticalAlign=top;spacingLeft=4;spacingRight=4;overflow=hidden;rotatable=0;points=[[0,0.5],[1,0.5]];portConstraint=eastwest;rounded=0;shadow=0;html=0;" vertex="1" parent="4KrZlMonaQdLq2CWz8eh-8">
          <mxGeometry y="52" width="200" height="22" as="geometry" />
        </mxCell>
        <mxCell id="4KrZlMonaQdLq2CWz8eh-12" value="- email: String" style="text;align=left;verticalAlign=top;spacingLeft=4;spacingRight=4;overflow=hidden;rotatable=0;points=[[0,0.5],[1,0.5]];portConstraint=eastwest;rounded=0;shadow=0;html=0;" vertex="1" parent="4KrZlMonaQdLq2CWz8eh-8">
          <mxGeometry y="74" width="200" height="22" as="geometry" />
        </mxCell>
        <mxCell id="4KrZlMonaQdLq2CWz8eh-9" value="" style="line;html=1;strokeWidth=1;align=left;verticalAlign=middle;spacingTop=-1;spacingLeft=3;spacingRight=3;rotatable=0;labelPosition=right;points=[];portConstraint=eastwest;" vertex="1" parent="4KrZlMonaQdLq2CWz8eh-8">
          <mxGeometry y="96" width="200" height="8" as="geometry" />
        </mxCell>
        <mxCell id="4KrZlMonaQdLq2CWz8eh-49" style="edgeStyle=orthogonalEdgeStyle;rounded=0;orthogonalLoop=1;jettySize=auto;html=1;" edge="1" parent="1" source="4KrZlMonaQdLq2CWz8eh-51" target="ZMoEwl9ZKF62md0-fzZt-2">
          <mxGeometry relative="1" as="geometry">
            <Array as="points">
              <mxPoint x="800" y="-1660" />
            </Array>
          </mxGeometry>
        </mxCell>
        <mxCell id="4KrZlMonaQdLq2CWz8eh-15" value="Estado" style="swimlane;fontStyle=0;align=center;verticalAlign=top;childLayout=stackLayout;horizontal=1;startSize=30;horizontalStack=0;resizeParent=1;resizeLast=0;collapsible=1;marginBottom=0;rounded=0;shadow=0;strokeWidth=1;fillColor=#fff2cc;strokeColor=#d6b656;" vertex="1" parent="1">
          <mxGeometry x="800" y="-1700" width="280" height="140" as="geometry">
            <mxRectangle x="110" y="-20" width="160" height="26" as="alternateBounds" />
          </mxGeometry>
        </mxCell>
        <mxCell id="4KrZlMonaQdLq2CWz8eh-16" value="- excursion: Excursion" style="text;align=left;verticalAlign=top;spacingLeft=4;spacingRight=4;overflow=hidden;rotatable=0;points=[[0,0.5],[1,0.5]];portConstraint=eastwest;rounded=0;shadow=0;html=0;" vertex="1" parent="4KrZlMonaQdLq2CWz8eh-15">
          <mxGeometry y="30" width="280" height="22" as="geometry" />
        </mxCell>
        <mxCell id="4KrZlMonaQdLq2CWz8eh-19" value="" style="line;html=1;strokeWidth=1;align=left;verticalAlign=middle;spacingTop=-1;spacingLeft=3;spacingRight=3;rotatable=0;labelPosition=right;points=[];portConstraint=eastwest;" vertex="1" parent="4KrZlMonaQdLq2CWz8eh-15">
          <mxGeometry y="52" width="280" height="8" as="geometry" />
        </mxCell>
        <mxCell id="4KrZlMonaQdLq2CWz8eh-20" value="+ getExcursion(): Excursion" style="text;align=left;verticalAlign=top;spacingLeft=4;spacingRight=4;overflow=hidden;rotatable=0;points=[[0,0.5],[1,0.5]];portConstraint=eastwest;rounded=0;shadow=0;html=0;" vertex="1" parent="4KrZlMonaQdLq2CWz8eh-15">
          <mxGeometry y="60" width="280" height="22" as="geometry" />
        </mxCell>
        <mxCell id="4KrZlMonaQdLq2CWz8eh-21" value="+ &lt;&lt;abstract&gt;&gt; void inscribir(usuario: Usuario)" style="text;align=left;verticalAlign=top;spacingLeft=4;spacingRight=4;overflow=hidden;rotatable=0;points=[[0,0.5],[1,0.5]];portConstraint=eastwest;rounded=0;shadow=0;html=0;" vertex="1" parent="4KrZlMonaQdLq2CWz8eh-15">
          <mxGeometry y="82" width="280" height="22" as="geometry" />
        </mxCell>
        <mxCell id="4KrZlMonaQdLq2CWz8eh-22" value="+ &lt;&lt;abstract&gt;&gt; String obtenerInformacion()" style="text;align=left;verticalAlign=top;spacingLeft=4;spacingRight=4;overflow=hidden;rotatable=0;points=[[0,0.5],[1,0.5]];portConstraint=eastwest;rounded=0;shadow=0;html=0;" vertex="1" parent="4KrZlMonaQdLq2CWz8eh-15">
          <mxGeometry y="104" width="280" height="22" as="geometry" />
        </mxCell>
        <mxCell id="4KrZlMonaQdLq2CWz8eh-39" style="edgeStyle=orthogonalEdgeStyle;rounded=0;orthogonalLoop=1;jettySize=auto;html=1;endSize=12;startSize=12;endArrow=block;endFill=0;" edge="1" parent="1" source="4KrZlMonaQdLq2CWz8eh-23" target="4KrZlMonaQdLq2CWz8eh-15">
          <mxGeometry relative="1" as="geometry">
            <Array as="points">
              <mxPoint x="1120" y="-1490" />
              <mxPoint x="1120" y="-1630" />
            </Array>
          </mxGeometry>
        </mxCell>
        <mxCell id="4KrZlMonaQdLq2CWz8eh-23" value="Provisoria" style="swimlane;fontStyle=0;align=center;verticalAlign=top;childLayout=stackLayout;horizontal=1;startSize=30;horizontalStack=0;resizeParent=1;resizeLast=0;collapsible=1;marginBottom=0;rounded=0;shadow=0;strokeWidth=1;fillColor=#fff2cc;strokeColor=#d6b656;" vertex="1" parent="1">
          <mxGeometry x="1158.75" y="-1540" width="200" height="100" as="geometry">
            <mxRectangle x="110" y="-20" width="160" height="26" as="alternateBounds" />
          </mxGeometry>
        </mxCell>
        <mxCell id="4KrZlMonaQdLq2CWz8eh-25" value="" style="line;html=1;strokeWidth=1;align=left;verticalAlign=middle;spacingTop=-1;spacingLeft=3;spacingRight=3;rotatable=0;labelPosition=right;points=[];portConstraint=eastwest;" vertex="1" parent="4KrZlMonaQdLq2CWz8eh-23">
          <mxGeometry y="30" width="200" height="8" as="geometry" />
        </mxCell>
        <mxCell id="4KrZlMonaQdLq2CWz8eh-26" value="+ inscribir(usuario: Usuario)" style="text;align=left;verticalAlign=top;spacingLeft=4;spacingRight=4;overflow=hidden;rotatable=0;points=[[0,0.5],[1,0.5]];portConstraint=eastwest;rounded=0;shadow=0;html=0;" vertex="1" parent="4KrZlMonaQdLq2CWz8eh-23">
          <mxGeometry y="38" width="200" height="22" as="geometry" />
        </mxCell>
        <mxCell id="4KrZlMonaQdLq2CWz8eh-27" value="+ obtenerInformacion(): String" style="text;align=left;verticalAlign=top;spacingLeft=4;spacingRight=4;overflow=hidden;rotatable=0;points=[[0,0.5],[1,0.5]];portConstraint=eastwest;rounded=0;shadow=0;html=0;" vertex="1" parent="4KrZlMonaQdLq2CWz8eh-23">
          <mxGeometry y="60" width="200" height="22" as="geometry" />
        </mxCell>
        <mxCell id="4KrZlMonaQdLq2CWz8eh-37" style="edgeStyle=orthogonalEdgeStyle;rounded=0;orthogonalLoop=1;jettySize=auto;html=1;endSize=12;startSize=12;endArrow=block;endFill=0;" edge="1" parent="1" source="4KrZlMonaQdLq2CWz8eh-29" target="4KrZlMonaQdLq2CWz8eh-15">
          <mxGeometry relative="1" as="geometry" />
        </mxCell>
        <mxCell id="4KrZlMonaQdLq2CWz8eh-29" value="Definitiva" style="swimlane;fontStyle=0;align=center;verticalAlign=top;childLayout=stackLayout;horizontal=1;startSize=30;horizontalStack=0;resizeParent=1;resizeLast=0;collapsible=1;marginBottom=0;rounded=0;shadow=0;strokeWidth=1;fillColor=#fff2cc;strokeColor=#d6b656;" vertex="1" parent="1">
          <mxGeometry x="1158.75" y="-1680" width="201.25" height="100" as="geometry">
            <mxRectangle x="110" y="-20" width="160" height="26" as="alternateBounds" />
          </mxGeometry>
        </mxCell>
        <mxCell id="4KrZlMonaQdLq2CWz8eh-30" value="" style="line;html=1;strokeWidth=1;align=left;verticalAlign=middle;spacingTop=-1;spacingLeft=3;spacingRight=3;rotatable=0;labelPosition=right;points=[];portConstraint=eastwest;" vertex="1" parent="4KrZlMonaQdLq2CWz8eh-29">
          <mxGeometry y="30" width="201.25" height="8" as="geometry" />
        </mxCell>
        <mxCell id="4KrZlMonaQdLq2CWz8eh-31" value="+ inscribir(usuario: Usuario)" style="text;align=left;verticalAlign=top;spacingLeft=4;spacingRight=4;overflow=hidden;rotatable=0;points=[[0,0.5],[1,0.5]];portConstraint=eastwest;rounded=0;shadow=0;html=0;" vertex="1" parent="4KrZlMonaQdLq2CWz8eh-29">
          <mxGeometry y="38" width="201.25" height="22" as="geometry" />
        </mxCell>
        <mxCell id="4KrZlMonaQdLq2CWz8eh-32" value="+ obtenerInformacion(): String" style="text;align=left;verticalAlign=top;spacingLeft=4;spacingRight=4;overflow=hidden;rotatable=0;points=[[0,0.5],[1,0.5]];portConstraint=eastwest;rounded=0;shadow=0;html=0;" vertex="1" parent="4KrZlMonaQdLq2CWz8eh-29">
          <mxGeometry y="60" width="201.25" height="22" as="geometry" />
        </mxCell>
        <mxCell id="4KrZlMonaQdLq2CWz8eh-38" style="edgeStyle=orthogonalEdgeStyle;rounded=0;orthogonalLoop=1;jettySize=auto;html=1;endSize=12;startSize=12;endArrow=block;endFill=0;" edge="1" parent="1" source="4KrZlMonaQdLq2CWz8eh-33" target="4KrZlMonaQdLq2CWz8eh-15">
          <mxGeometry relative="1" as="geometry">
            <Array as="points">
              <mxPoint x="1120" y="-1770" />
              <mxPoint x="1120" y="-1630" />
            </Array>
          </mxGeometry>
        </mxCell>
        <mxCell id="4KrZlMonaQdLq2CWz8eh-33" value="Completa" style="swimlane;fontStyle=0;align=center;verticalAlign=top;childLayout=stackLayout;horizontal=1;startSize=30;horizontalStack=0;resizeParent=1;resizeLast=0;collapsible=1;marginBottom=0;rounded=0;shadow=0;strokeWidth=1;fillColor=#fff2cc;strokeColor=#d6b656;" vertex="1" parent="1">
          <mxGeometry x="1160" y="-1820" width="200" height="100" as="geometry">
            <mxRectangle x="110" y="-20" width="160" height="26" as="alternateBounds" />
          </mxGeometry>
        </mxCell>
        <mxCell id="4KrZlMonaQdLq2CWz8eh-34" value="" style="line;html=1;strokeWidth=1;align=left;verticalAlign=middle;spacingTop=-1;spacingLeft=3;spacingRight=3;rotatable=0;labelPosition=right;points=[];portConstraint=eastwest;" vertex="1" parent="4KrZlMonaQdLq2CWz8eh-33">
          <mxGeometry y="30" width="200" height="8" as="geometry" />
        </mxCell>
        <mxCell id="4KrZlMonaQdLq2CWz8eh-35" value="+ inscribir(usuario: Usuario)" style="text;align=left;verticalAlign=top;spacingLeft=4;spacingRight=4;overflow=hidden;rotatable=0;points=[[0,0.5],[1,0.5]];portConstraint=eastwest;rounded=0;shadow=0;html=0;" vertex="1" parent="4KrZlMonaQdLq2CWz8eh-33">
          <mxGeometry y="38" width="200" height="22" as="geometry" />
        </mxCell>
        <mxCell id="4KrZlMonaQdLq2CWz8eh-36" value="+ obtenerInformacion(): String" style="text;align=left;verticalAlign=top;spacingLeft=4;spacingRight=4;overflow=hidden;rotatable=0;points=[[0,0.5],[1,0.5]];portConstraint=eastwest;rounded=0;shadow=0;html=0;" vertex="1" parent="4KrZlMonaQdLq2CWz8eh-33">
          <mxGeometry y="60" width="200" height="22" as="geometry" />
        </mxCell>
        <mxCell id="4KrZlMonaQdLq2CWz8eh-43" style="edgeStyle=orthogonalEdgeStyle;rounded=0;orthogonalLoop=1;jettySize=auto;html=1;entryX=0.25;entryY=0;entryDx=0;entryDy=0;endSize=12;startSize=12;" edge="1" parent="1">
          <mxGeometry relative="1" as="geometry">
            <mxPoint x="440" y="-1480" as="sourcePoint" />
            <mxPoint x="440" y="-1400" as="targetPoint" />
          </mxGeometry>
        </mxCell>
        <mxCell id="4KrZlMonaQdLq2CWz8eh-44" style="edgeStyle=orthogonalEdgeStyle;rounded=0;orthogonalLoop=1;jettySize=auto;html=1;entryX=0.25;entryY=0;entryDx=0;entryDy=0;endSize=12;startSize=12;" edge="1" parent="1">
          <mxGeometry relative="1" as="geometry">
            <mxPoint x="560" y="-1480" as="sourcePoint" />
            <mxPoint x="560" y="-1400" as="targetPoint" />
          </mxGeometry>
        </mxCell>
        <mxCell id="4KrZlMonaQdLq2CWz8eh-45" value="inscriptos" style="text;html=1;align=center;verticalAlign=middle;whiteSpace=wrap;rounded=0;fontSize=14;" vertex="1" parent="1">
          <mxGeometry x="560" y="-1450" width="67.5" height="25" as="geometry" />
        </mxCell>
        <mxCell id="4KrZlMonaQdLq2CWz8eh-46" value="enEspera" style="text;html=1;align=center;verticalAlign=middle;whiteSpace=wrap;rounded=0;fontSize=14;" vertex="1" parent="1">
          <mxGeometry x="440" y="-1440" width="70" height="10" as="geometry" />
        </mxCell>
        <mxCell id="4KrZlMonaQdLq2CWz8eh-47" value="&lt;font style=&quot;font-size: 30px;&quot;&gt;*&lt;/font&gt;" style="text;html=1;align=center;verticalAlign=middle;whiteSpace=wrap;rounded=0;fontSize=14;" vertex="1" parent="1">
          <mxGeometry x="512.5" y="-1450" width="67.5" height="40" as="geometry" />
        </mxCell>
        <mxCell id="4KrZlMonaQdLq2CWz8eh-48" value="&lt;font style=&quot;font-size: 30px;&quot;&gt;*&lt;/font&gt;" style="text;html=1;align=center;verticalAlign=middle;whiteSpace=wrap;rounded=0;fontSize=14;" vertex="1" parent="1">
          <mxGeometry x="391" y="-1450" width="67.5" height="40" as="geometry" />
        </mxCell>
        <mxCell id="4KrZlMonaQdLq2CWz8eh-50" value="excursion" style="text;html=1;align=center;verticalAlign=middle;whiteSpace=wrap;rounded=0;fontSize=14;" vertex="1" parent="1">
          <mxGeometry x="701" y="-1680" width="82.5" height="15" as="geometry" />
        </mxCell>
        <mxCell id="4KrZlMonaQdLq2CWz8eh-51" value="&lt;span style=&quot;color: rgb(0, 0, 0); font-family: Helvetica; font-size: 14px; font-style: normal; font-variant-ligatures: normal; font-variant-caps: normal; font-weight: 400; letter-spacing: normal; orphans: 2; text-align: center; text-indent: 0px; text-transform: none; widows: 2; word-spacing: 0px; -webkit-text-stroke-width: 0px; white-space: normal; background-color: rgb(251, 251, 251); text-decoration-thickness: initial; text-decoration-style: initial; text-decoration-color: initial; display: inline !important; float: none;&quot;&gt;1&lt;/span&gt;" style="text;whiteSpace=wrap;html=1;" vertex="1" parent="1">
          <mxGeometry x="735" y="-1658" width="90" height="40" as="geometry" />
        </mxCell>
        <mxCell id="4KrZlMonaQdLq2CWz8eh-53" style="edgeStyle=orthogonalEdgeStyle;rounded=0;orthogonalLoop=1;jettySize=auto;html=1;exitX=1;exitY=0.182;exitDx=0;exitDy=0;exitPerimeter=0;" edge="1" parent="1" source="4KrZlMonaQdLq2CWz8eh-6">
          <mxGeometry relative="1" as="geometry">
            <mxPoint x="680" y="-1598.128" as="sourcePoint" />
            <mxPoint x="800" y="-1600" as="targetPoint" />
            <Array as="points" />
          </mxGeometry>
        </mxCell>
        <mxCell id="4KrZlMonaQdLq2CWz8eh-54" value="estado" style="text;html=1;align=center;verticalAlign=middle;whiteSpace=wrap;rounded=0;fontSize=14;" vertex="1" parent="1">
          <mxGeometry x="701" y="-1618" width="82.5" height="15" as="geometry" />
        </mxCell>
        <mxCell id="4KrZlMonaQdLq2CWz8eh-55" value="&lt;span style=&quot;color: rgb(0, 0, 0); font-family: Helvetica; font-size: 14px; font-style: normal; font-variant-ligatures: normal; font-variant-caps: normal; font-weight: 400; letter-spacing: normal; orphans: 2; text-align: center; text-indent: 0px; text-transform: none; widows: 2; word-spacing: 0px; -webkit-text-stroke-width: 0px; white-space: normal; background-color: rgb(251, 251, 251); text-decoration-thickness: initial; text-decoration-style: initial; text-decoration-color: initial; display: inline !important; float: none;&quot;&gt;1&lt;/span&gt;" style="text;whiteSpace=wrap;html=1;" vertex="1" parent="1">
          <mxGeometry x="735" y="-1600" width="90" height="40" as="geometry" />
        </mxCell>
        <mxCell id="4KrZlMonaQdLq2CWz8eh-56" value="&lt;font size=&quot;1&quot; style=&quot;&quot;&gt;&lt;b style=&quot;&quot;&gt;&lt;i style=&quot;font-size: 12px;&quot;&gt;Concrete State&lt;/i&gt;&lt;/b&gt;&lt;/font&gt;" style="text;html=1;align=center;verticalAlign=middle;whiteSpace=wrap;rounded=0;" vertex="1" parent="1">
          <mxGeometry x="1160" y="-1560" width="90" height="20" as="geometry" />
        </mxCell>
        <mxCell id="4KrZlMonaQdLq2CWz8eh-57" value="&lt;font size=&quot;1&quot; style=&quot;&quot;&gt;&lt;b style=&quot;&quot;&gt;&lt;i style=&quot;font-size: 12px;&quot;&gt;Concrete State&lt;/i&gt;&lt;/b&gt;&lt;/font&gt;" style="text;html=1;align=center;verticalAlign=middle;whiteSpace=wrap;rounded=0;" vertex="1" parent="1">
          <mxGeometry x="1158.75" y="-1700" width="90" height="20" as="geometry" />
        </mxCell>
        <mxCell id="4KrZlMonaQdLq2CWz8eh-58" value="&lt;font size=&quot;1&quot; style=&quot;&quot;&gt;&lt;b style=&quot;&quot;&gt;&lt;i style=&quot;font-size: 12px;&quot;&gt;Concrete State&lt;/i&gt;&lt;/b&gt;&lt;/font&gt;" style="text;html=1;align=center;verticalAlign=middle;whiteSpace=wrap;rounded=0;" vertex="1" parent="1">
          <mxGeometry x="1160" y="-1840" width="90" height="20" as="geometry" />
        </mxCell>
        <mxCell id="4KrZlMonaQdLq2CWz8eh-59" value="&lt;font size=&quot;1&quot; style=&quot;&quot;&gt;&lt;b style=&quot;&quot;&gt;&lt;i style=&quot;font-size: 12px;&quot;&gt;State&lt;/i&gt;&lt;/b&gt;&lt;/font&gt;" style="text;html=1;align=center;verticalAlign=middle;whiteSpace=wrap;rounded=0;" vertex="1" parent="1">
          <mxGeometry x="800" y="-1720" width="50" height="20" as="geometry" />
        </mxCell>
        <mxCell id="4KrZlMonaQdLq2CWz8eh-60" value="&lt;font size=&quot;1&quot; style=&quot;&quot;&gt;&lt;b style=&quot;&quot;&gt;&lt;i style=&quot;font-size: 12px;&quot;&gt;Context&lt;/i&gt;&lt;/b&gt;&lt;/font&gt;" style="text;html=1;align=center;verticalAlign=middle;whiteSpace=wrap;rounded=0;" vertex="1" parent="1">
          <mxGeometry x="320" y="-1860" width="60" height="20" as="geometry" />
        </mxCell>
      </root>
    </mxGraphModel>
  </diagram>
</mxfile>
